<?xml version="1.0" encoding="UTF-8"?>
<svg xmlns="http://www.w3.org/2000/svg" width="480" height="280" viewBox="0 0 480 280">
<rect width="480" height="280" fill="#FFFFFF"/>
<rect x="214" y="148" width="14" height="40" rx="4" fill="#3E4C8A" stroke="#222222" stroke-width="3"/><rect x="232" y="148" width="14" height="40" rx="4" fill="#3E4C8A" stroke="#222222" stroke-width="3"/><ellipse cx="220" cy="198" rx="10" ry="5" fill="#3A3A3A" stroke="#222222" stroke-width="3"/><ellipse cx="240" cy="198" rx="10" ry="5" fill="#3A3A3A" stroke="#222222" stroke-width="3"/><rect x="208" y="138" width="44" height="36" rx="6" fill="#6AA6E6" stroke="#222222" stroke-width="5"/><circle cx="230" cy="122" r="20" fill="#F6CDB0" stroke="#222222" stroke-width="5"/><path d="M 210,122 Q 230,94 250,122" fill="#6B4226" stroke="#222222" stroke-width="3"/><circle cx="223" cy="124" r="2" fill="#222222"/><circle cx="237" cy="124" r="2" fill="#222222"/><rect x="50" y="90" width="360" height="100" rx="8" fill="#F3D36A" stroke="#222222" stroke-width="5" stroke-linejoin="round"/><rect x="62" y="104" width="46" height="36" fill="#B9DFF6" stroke="#222222" stroke-width="3"/><rect x="128" y="106" width="52" height="32" fill="#B9DFF6" stroke="#222222" stroke-width="3"/><rect x="198" y="106" width="52" height="32" fill="#B9DFF6" stroke="#222222" stroke-width="3"/><rect x="268" y="106" width="52" height="32" fill="#B9DFF6" stroke="#222222" stroke-width="3"/><rect x="58" y="152" width="18" height="10" fill="#F7E7A2" stroke="#222222" stroke-width="3"/><circle cx="120" cy="190" r="24" fill="#3A3A3A" stroke="#222222" stroke-width="5"/><circle cx="120" cy="190" r="12" fill="#E6E6E6" stroke="#222222" stroke-width="3"/><circle cx="340" cy="190" r="24" fill="#3A3A3A" stroke="#222222" stroke-width="5"/><circle cx="340" cy="190" r="12" fill="#E6E6E6" stroke="#222222" stroke-width="3"/><polygon points="374.0,124.0 377.9,134.6 389.2,135.1 380.4,142.1 383.4,152.9 374.0,146.7 364.6,152.9 367.6,142.1 358.8,135.1 370.1,134.6" fill="#E2534B" stroke="#222222" stroke-width="3" stroke-linejoin="round"/>
</svg>
