<?xml version="1.0" encoding="UTF-8"?>
<svg xmlns="http://www.w3.org/2000/svg" width="1100" height="260" viewBox="0 0 1100 260">
<rect width="1100" height="260" fill="#FFFFFF"/>
<line x1="40" y1="40" x2="40" y2="172" stroke="#C8C8C8" stroke-width="2"/>
<line x1="84" y1="40" x2="84" y2="172" stroke="#C8C8C8" stroke-width="2"/>
<line x1="128" y1="40" x2="128" y2="172" stroke="#C8C8C8" stroke-width="2"/>
<line x1="172" y1="40" x2="172" y2="172" stroke="#C8C8C8" stroke-width="2"/>
<line x1="216" y1="40" x2="216" y2="172" stroke="#C8C8C8" stroke-width="2"/>
<line x1="40" y1="40" x2="216" y2="40" stroke="#C8C8C8" stroke-width="2"/>
<line x1="40" y1="84" x2="216" y2="84" stroke="#C8C8C8" stroke-width="2"/>
<line x1="40" y1="128" x2="216" y2="128" stroke="#C8C8C8" stroke-width="2"/>
<line x1="40" y1="172" x2="216" y2="172" stroke="#C8C8C8" stroke-width="2"/>
<polyline points="40,84 40,172 172,172 172,40 40,40" fill="none" stroke="#222222" stroke-width="14" stroke-linejoin="miter" stroke-linecap="square"/>
<polyline points="40,84 40,172 172,172 172,40 40,40" fill="none" stroke="#F4A9BD" stroke-width="8" stroke-linejoin="miter" stroke-linecap="square"/>
<text x="128.0" y="230.0" text-anchor="middle" font-family="Liberation Serif, Times New Roman, serif" font-size="36" font-weight="normal" fill="#222222">A</text>
<line x1="258" y1="40" x2="258" y2="172" stroke="#C8C8C8" stroke-width="2"/>
<line x1="302" y1="40" x2="302" y2="172" stroke="#C8C8C8" stroke-width="2"/>
<line x1="346" y1="40" x2="346" y2="172" stroke="#C8C8C8" stroke-width="2"/>
<line x1="390" y1="40" x2="390" y2="172" stroke="#C8C8C8" stroke-width="2"/>
<line x1="434" y1="40" x2="434" y2="172" stroke="#C8C8C8" stroke-width="2"/>
<line x1="258" y1="40" x2="434" y2="40" stroke="#C8C8C8" stroke-width="2"/>
<line x1="258" y1="84" x2="434" y2="84" stroke="#C8C8C8" stroke-width="2"/>
<line x1="258" y1="128" x2="434" y2="128" stroke="#C8C8C8" stroke-width="2"/>
<line x1="258" y1="172" x2="434" y2="172" stroke="#C8C8C8" stroke-width="2"/>
<polyline points="258,40 434,40 434,84 302,84 302,172 390,172" fill="none" stroke="#222222" stroke-width="14" stroke-linejoin="miter" stroke-linecap="square"/>
<polyline points="258,40 434,40 434,84 302,84 302,172 390,172" fill="none" stroke="#F5D27A" stroke-width="8" stroke-linejoin="miter" stroke-linecap="square"/>
<text x="346.0" y="230.0" text-anchor="middle" font-family="Liberation Serif, Times New Roman, serif" font-size="36" font-weight="normal" fill="#222222">B</text>
<line x1="476" y1="40" x2="476" y2="172" stroke="#C8C8C8" stroke-width="2"/>
<line x1="520" y1="40" x2="520" y2="172" stroke="#C8C8C8" stroke-width="2"/>
<line x1="564" y1="40" x2="564" y2="172" stroke="#C8C8C8" stroke-width="2"/>
<line x1="608" y1="40" x2="608" y2="172" stroke="#C8C8C8" stroke-width="2"/>
<line x1="652" y1="40" x2="652" y2="172" stroke="#C8C8C8" stroke-width="2"/>
<line x1="476" y1="40" x2="652" y2="40" stroke="#C8C8C8" stroke-width="2"/>
<line x1="476" y1="84" x2="652" y2="84" stroke="#C8C8C8" stroke-width="2"/>
<line x1="476" y1="128" x2="652" y2="128" stroke="#C8C8C8" stroke-width="2"/>
<line x1="476" y1="172" x2="652" y2="172" stroke="#C8C8C8" stroke-width="2"/>
<polyline points="476,40 476,172 652,172 652,40 564,40 564,128" fill="none" stroke="#222222" stroke-width="14" stroke-linejoin="miter" stroke-linecap="square"/>
<polyline points="476,40 476,172 652,172 652,40 564,40 564,128" fill="none" stroke="#8FCFA3" stroke-width="8" stroke-linejoin="miter" stroke-linecap="square"/>
<text x="564.0" y="230.0" text-anchor="middle" font-family="Liberation Serif, Times New Roman, serif" font-size="36" font-weight="normal" fill="#222222">C</text>
<line x1="694" y1="40" x2="694" y2="172" stroke="#C8C8C8" stroke-width="2"/>
<line x1="738" y1="40" x2="738" y2="172" stroke="#C8C8C8" stroke-width="2"/>
<line x1="782" y1="40" x2="782" y2="172" stroke="#C8C8C8" stroke-width="2"/>
<line x1="826" y1="40" x2="826" y2="172" stroke="#C8C8C8" stroke-width="2"/>
<line x1="870" y1="40" x2="870" y2="172" stroke="#C8C8C8" stroke-width="2"/>
<line x1="694" y1="40" x2="870" y2="40" stroke="#C8C8C8" stroke-width="2"/>
<line x1="694" y1="84" x2="870" y2="84" stroke="#C8C8C8" stroke-width="2"/>
<line x1="694" y1="128" x2="870" y2="128" stroke="#C8C8C8" stroke-width="2"/>
<line x1="694" y1="172" x2="870" y2="172" stroke="#C8C8C8" stroke-width="2"/>
<polyline points="694,172 694,40 870,40 870,172 782,172 782,128" fill="none" stroke="#222222" stroke-width="14" stroke-linejoin="miter" stroke-linecap="square"/>
<polyline points="694,172 694,40 870,40 870,172 782,172 782,128" fill="none" stroke="#9EC3F0" stroke-width="8" stroke-linejoin="miter" stroke-linecap="square"/>
<text x="782.0" y="230.0" text-anchor="middle" font-family="Liberation Serif, Times New Roman, serif" font-size="36" font-weight="normal" fill="#222222">D</text>
<line x1="912" y1="40" x2="912" y2="172" stroke="#C8C8C8" stroke-width="2"/>
<line x1="956" y1="40" x2="956" y2="172" stroke="#C8C8C8" stroke-width="2"/>
<line x1="1000" y1="40" x2="1000" y2="172" stroke="#C8C8C8" stroke-width="2"/>
<line x1="1044" y1="40" x2="1044" y2="172" stroke="#C8C8C8" stroke-width="2"/>
<line x1="1088" y1="40" x2="1088" y2="172" stroke="#C8C8C8" stroke-width="2"/>
<line x1="912" y1="40" x2="1088" y2="40" stroke="#C8C8C8" stroke-width="2"/>
<line x1="912" y1="84" x2="1088" y2="84" stroke="#C8C8C8" stroke-width="2"/>
<line x1="912" y1="128" x2="1088" y2="128" stroke="#C8C8C8" stroke-width="2"/>
<line x1="912" y1="172" x2="1088" y2="172" stroke="#C8C8C8" stroke-width="2"/>
<polyline points="912,172 912,40 956,40 956,128 1044,128 1044,40 1088,40 1088,128" fill="none" stroke="#222222" stroke-width="14" stroke-linejoin="miter" stroke-linecap="square"/>
<polyline points="912,172 912,40 956,40 956,128 1044,128 1044,40 1088,40 1088,128" fill="none" stroke="#C9B0EA" stroke-width="8" stroke-linejoin="miter" stroke-linecap="square"/>
<text x="1000.0" y="230.0" text-anchor="middle" font-family="Liberation Serif, Times New Roman, serif" font-size="36" font-weight="normal" fill="#222222">E</text>
</svg>
