<?xml version="1.0" encoding="UTF-8"?>
<svg xmlns="http://www.w3.org/2000/svg" width="460" height="330" viewBox="0 0 460 330">
<rect width="460" height="330" fill="#FFFFFF"/>
<text x="24" y="36" font-family="Noto Serif, serif" font-size="22" fill="#222222">cards</text><rect x="24" y="56" width="54" height="54" fill="#F08A6A" stroke="#222222" stroke-width="4"/><circle cx="132" cy="84" r="26" fill="#7EB6E8" stroke="#222222" stroke-width="4"/><polygon points="212.0,56.0 184.0,110.0 240.0,110.0" fill="#7DCE8A" stroke="#222222" stroke-width="4" stroke-linejoin="round"/><rect x="24" y="148" width="64" height="32" fill="#F2C14E" stroke="#222222" stroke-width="4"/><polygon points="132.0,136.0 139.4,153.8 158.6,155.3 144.0,167.9 148.5,186.7 132.0,176.6 115.5,186.7 120.0,167.9 105.4,155.3 124.6,153.8" fill="#C9A0E0" stroke="#222222" stroke-width="4" stroke-linejoin="round"/><ellipse cx="214" cy="164" rx="26" ry="16" fill="#F6B26B" stroke="#222222" stroke-width="4"/><text x="300" y="36" font-family="Noto Serif, serif" font-size="22" fill="#222222">tower</text><circle cx="356.6" cy="74.6" r="24.7" fill="#7EB6E8" stroke="#222222" stroke-width="4"/><rect x="330" y="123.4" width="60.8" height="30.4" fill="#F2C14E" stroke="#222222" stroke-width="4"/><polygon points="356.6,176.0 330.0,227.3 383.2,227.3" fill="#7DCE8A" stroke="#222222" stroke-width="4" stroke-linejoin="round"/><rect x="330" y="240" width="51.3" height="51.3" fill="#F08A6A" stroke="#222222" stroke-width="4"/>
</svg>
