<svg xmlns="http://www.w3.org/2000/svg" width="33.000" height="36.000" viewBox="478.000 672.000 33.000 36.000">
<path d="M 479.604 677.041 L 497.604 677.041 L 497.604 695.041 L 479.604 695.041 Z" style="stroke:#000000;stroke-width:0.450;stroke-miterlimit:10;fill:#00ff00;fill-rule:evenodd;fill-opacity:1.0000;stroke-opacity:1.0000;stroke-linecap:butt;stroke-linejoin:miter"/>
<path d="M 503.424 682.141 C 503.424 687.111, 499.394 691.141, 494.424 691.141 C 489.454 691.141, 485.424 687.111, 485.424 682.141 C 485.424 677.171, 489.454 673.141, 494.424 673.141 C 499.394 673.141, 503.424 677.171, 503.424 682.141" style="stroke:#000000;stroke-width:0.450;stroke-miterlimit:10;fill:#ff0000;fill-rule:evenodd;fill-opacity:1.0000;stroke-opacity:1.0000;stroke-linecap:butt;stroke-linejoin:miter"/>
<path d="M 491.304 706.201 L 487.404 699.421 L 479.664 699.421 L 483.504 692.701 L 479.724 685.981 L 487.464 685.981 L 491.304 679.201 L 495.264 685.921 L 502.764 685.921 L 499.104 692.701 L 503.004 699.361 L 495.264 699.421" style="stroke:none;fill:#ffff00;fill-rule:evenodd;fill-opacity:1.0000"/>
<path d="M 491.304 706.201 L 487.404 699.421 L 479.664 699.421 L 483.504 692.701 L 479.724 685.981 L 487.464 685.981 L 491.304 679.201 L 495.264 685.921 L 502.764 685.921 L 499.104 692.701 L 503.004 699.361 L 495.264 699.421 L 491.304 706.201" style="stroke:#000000;stroke-width:0.450;stroke-miterlimit:10;fill:none;stroke-opacity:1.0000;stroke-linecap:butt;stroke-linejoin:round"/>
<path d="M 497.724 673.921 L 486.024 694.201 L 509.424 694.201" style="stroke:none;fill:#87cfff;fill-rule:evenodd;fill-opacity:1.0000"/>
<path d="M 497.724 673.921 L 486.024 694.201 L 509.424 694.201 L 497.724 673.921" style="stroke:#000000;stroke-width:0.450;stroke-miterlimit:10;fill:none;stroke-opacity:1.0000;stroke-linecap:butt;stroke-linejoin:round"/>
</svg>