<?xml version="1.0" encoding="UTF-8"?>
<svg xmlns="http://www.w3.org/2000/svg" width="1680" height="980" viewBox="0 0 1680 980">
<rect width="1680" height="980" fill="#FFFFFF"/>
<circle cx="260.0" cy="210.0" r="105.8" fill="#D7EBFA" stroke="#222222" stroke-width="7" stroke-linejoin="round" stroke-linecap="round"/>
<circle cx="260.0" cy="210.0" r="18.4" fill="#F7D56A" stroke="#222222" stroke-width="5" stroke-linejoin="round" stroke-linecap="round"/>
<path d="M 198.3,174.4 L 204.9,164.9 L 212.9,156.6 L 222.1,149.7 L 232.3,144.4 L 243.3,140.8 L 254.7,139.0 L 266.2,139.1 L 277.6,141.0 L 288.5,144.7 L 298.6,150.2 L 307.8,157.2 L 315.7,165.6 L 322.1,175.2 L 326.9,185.6 L 296.8,196.6 L 294.2,190.8 L 290.6,185.6 L 286.3,180.9 L 281.3,177.1 L 275.7,174.1 L 269.7,172.0 L 263.4,170.9 L 257.1,170.9 L 250.8,171.9 L 244.8,173.9 L 239.1,176.8 L 234.1,180.6 L 229.7,185.2 L 226.1,190.4 Z" fill="#F3B6C8" stroke="#222222" stroke-width="4" stroke-linejoin="round" stroke-linecap="round"/>
<polygon points="332.5,183.6 321.4,217.4 291.2,198.6" fill="#F3B6C8" stroke="#222222" stroke-width="4" stroke-linejoin="round" stroke-linecap="round"/>
<circle cx="260.0" cy="58.2" r="23.0" fill="#FFE8A8" stroke="#222222" stroke-width="5" stroke-linejoin="round" stroke-linecap="round"/>
<circle cx="260.0" cy="58.2" r="12.6" fill="#F7A8C4" stroke="#222222" stroke-width="4" stroke-linejoin="round" stroke-linecap="round"/>
<circle cx="391.5" cy="134.1" r="23.0" fill="#FFE8A8" stroke="#222222" stroke-width="5" stroke-linejoin="round" stroke-linecap="round"/>
<circle cx="391.5" cy="285.9" r="23.0" fill="#FFE8A8" stroke="#222222" stroke-width="5" stroke-linejoin="round" stroke-linecap="round"/>
<circle cx="260.0" cy="361.8" r="23.0" fill="#FFE8A8" stroke="#222222" stroke-width="5" stroke-linejoin="round" stroke-linecap="round"/>
<circle cx="128.5" cy="285.9" r="23.0" fill="#FFE8A8" stroke="#222222" stroke-width="5" stroke-linejoin="round" stroke-linecap="round"/>
<circle cx="128.5" cy="134.1" r="23.0" fill="#FFE8A8" stroke="#222222" stroke-width="5" stroke-linejoin="round" stroke-linecap="round"/>
<circle cx="128.5" cy="134.1" r="12.6" fill="#7EB6F2" stroke="#222222" stroke-width="4" stroke-linejoin="round" stroke-linecap="round"/>
<circle cx="170.0" cy="640.0" r="78.2" fill="#D7EBFA" stroke="#222222" stroke-width="7" stroke-linejoin="round" stroke-linecap="round"/>
<circle cx="170.0" cy="640.0" r="13.6" fill="#F7D56A" stroke="#222222" stroke-width="5" stroke-linejoin="round" stroke-linecap="round"/>
<circle cx="170.0" cy="527.8" r="17.0" fill="#FFE8A8" stroke="#222222" stroke-width="5" stroke-linejoin="round" stroke-linecap="round"/>
<circle cx="170.0" cy="527.8" r="9.3" fill="#7EB6F2" stroke="#222222" stroke-width="4" stroke-linejoin="round" stroke-linecap="round"/>
<circle cx="267.2" cy="583.9" r="17.0" fill="#FFE8A8" stroke="#222222" stroke-width="5" stroke-linejoin="round" stroke-linecap="round"/>
<circle cx="267.2" cy="696.1" r="17.0" fill="#FFE8A8" stroke="#222222" stroke-width="5" stroke-linejoin="round" stroke-linecap="round"/>
<circle cx="267.2" cy="696.1" r="9.3" fill="#F7A8C4" stroke="#222222" stroke-width="4" stroke-linejoin="round" stroke-linecap="round"/>
<circle cx="170.0" cy="752.2" r="17.0" fill="#FFE8A8" stroke="#222222" stroke-width="5" stroke-linejoin="round" stroke-linecap="round"/>
<circle cx="72.8" cy="696.1" r="17.0" fill="#FFE8A8" stroke="#222222" stroke-width="5" stroke-linejoin="round" stroke-linecap="round"/>
<circle cx="72.8" cy="583.9" r="17.0" fill="#FFE8A8" stroke="#222222" stroke-width="5" stroke-linejoin="round" stroke-linecap="round"/>
<text x="170.0" y="860.0" fill="#222222" font-family="Noto Serif" font-size="46" font-weight="700" text-anchor="middle">A</text>
<circle cx="470.0" cy="640.0" r="78.2" fill="#D7EBFA" stroke="#222222" stroke-width="7" stroke-linejoin="round" stroke-linecap="round"/>
<circle cx="470.0" cy="640.0" r="13.6" fill="#F7D56A" stroke="#222222" stroke-width="5" stroke-linejoin="round" stroke-linecap="round"/>
<circle cx="470.0" cy="527.8" r="17.0" fill="#FFE8A8" stroke="#222222" stroke-width="5" stroke-linejoin="round" stroke-linecap="round"/>
<circle cx="470.0" cy="527.8" r="9.3" fill="#F7A8C4" stroke="#222222" stroke-width="4" stroke-linejoin="round" stroke-linecap="round"/>
<circle cx="567.2" cy="583.9" r="17.0" fill="#FFE8A8" stroke="#222222" stroke-width="5" stroke-linejoin="round" stroke-linecap="round"/>
<circle cx="567.2" cy="583.9" r="9.3" fill="#7EB6F2" stroke="#222222" stroke-width="4" stroke-linejoin="round" stroke-linecap="round"/>
<circle cx="567.2" cy="696.1" r="17.0" fill="#FFE8A8" stroke="#222222" stroke-width="5" stroke-linejoin="round" stroke-linecap="round"/>
<circle cx="470.0" cy="752.2" r="17.0" fill="#FFE8A8" stroke="#222222" stroke-width="5" stroke-linejoin="round" stroke-linecap="round"/>
<circle cx="372.8" cy="696.1" r="17.0" fill="#FFE8A8" stroke="#222222" stroke-width="5" stroke-linejoin="round" stroke-linecap="round"/>
<circle cx="372.8" cy="583.9" r="17.0" fill="#FFE8A8" stroke="#222222" stroke-width="5" stroke-linejoin="round" stroke-linecap="round"/>
<text x="470.0" y="860.0" fill="#222222" font-family="Noto Serif" font-size="46" font-weight="700" text-anchor="middle">B</text>
<circle cx="770.0" cy="640.0" r="78.2" fill="#D7EBFA" stroke="#222222" stroke-width="7" stroke-linejoin="round" stroke-linecap="round"/>
<circle cx="770.0" cy="640.0" r="13.6" fill="#F7D56A" stroke="#222222" stroke-width="5" stroke-linejoin="round" stroke-linecap="round"/>
<circle cx="770.0" cy="527.8" r="17.0" fill="#FFE8A8" stroke="#222222" stroke-width="5" stroke-linejoin="round" stroke-linecap="round"/>
<circle cx="770.0" cy="527.8" r="9.3" fill="#7EB6F2" stroke="#222222" stroke-width="4" stroke-linejoin="round" stroke-linecap="round"/>
<circle cx="867.2" cy="583.9" r="17.0" fill="#FFE8A8" stroke="#222222" stroke-width="5" stroke-linejoin="round" stroke-linecap="round"/>
<circle cx="867.2" cy="583.9" r="9.3" fill="#F7A8C4" stroke="#222222" stroke-width="4" stroke-linejoin="round" stroke-linecap="round"/>
<circle cx="867.2" cy="696.1" r="17.0" fill="#FFE8A8" stroke="#222222" stroke-width="5" stroke-linejoin="round" stroke-linecap="round"/>
<circle cx="770.0" cy="752.2" r="17.0" fill="#FFE8A8" stroke="#222222" stroke-width="5" stroke-linejoin="round" stroke-linecap="round"/>
<circle cx="672.8" cy="696.1" r="17.0" fill="#FFE8A8" stroke="#222222" stroke-width="5" stroke-linejoin="round" stroke-linecap="round"/>
<circle cx="672.8" cy="583.9" r="17.0" fill="#FFE8A8" stroke="#222222" stroke-width="5" stroke-linejoin="round" stroke-linecap="round"/>
<text x="770.0" y="860.0" fill="#222222" font-family="Noto Serif" font-size="46" font-weight="700" text-anchor="middle">C</text>
<circle cx="1070.0" cy="640.0" r="78.2" fill="#D7EBFA" stroke="#222222" stroke-width="7" stroke-linejoin="round" stroke-linecap="round"/>
<circle cx="1070.0" cy="640.0" r="13.6" fill="#F7D56A" stroke="#222222" stroke-width="5" stroke-linejoin="round" stroke-linecap="round"/>
<circle cx="1070.0" cy="527.8" r="17.0" fill="#FFE8A8" stroke="#222222" stroke-width="5" stroke-linejoin="round" stroke-linecap="round"/>
<circle cx="1070.0" cy="527.8" r="9.3" fill="#7EB6F2" stroke="#222222" stroke-width="4" stroke-linejoin="round" stroke-linecap="round"/>
<circle cx="1167.2" cy="583.9" r="17.0" fill="#FFE8A8" stroke="#222222" stroke-width="5" stroke-linejoin="round" stroke-linecap="round"/>
<circle cx="1167.2" cy="696.1" r="17.0" fill="#FFE8A8" stroke="#222222" stroke-width="5" stroke-linejoin="round" stroke-linecap="round"/>
<circle cx="1070.0" cy="752.2" r="17.0" fill="#FFE8A8" stroke="#222222" stroke-width="5" stroke-linejoin="round" stroke-linecap="round"/>
<circle cx="972.8" cy="696.1" r="17.0" fill="#FFE8A8" stroke="#222222" stroke-width="5" stroke-linejoin="round" stroke-linecap="round"/>
<circle cx="972.8" cy="583.9" r="17.0" fill="#FFE8A8" stroke="#222222" stroke-width="5" stroke-linejoin="round" stroke-linecap="round"/>
<circle cx="972.8" cy="583.9" r="9.3" fill="#F7A8C4" stroke="#222222" stroke-width="4" stroke-linejoin="round" stroke-linecap="round"/>
<text x="1070.0" y="860.0" fill="#222222" font-family="Noto Serif" font-size="46" font-weight="700" text-anchor="middle">D</text>
<circle cx="1370.0" cy="640.0" r="78.2" fill="#D7EBFA" stroke="#222222" stroke-width="7" stroke-linejoin="round" stroke-linecap="round"/>
<circle cx="1370.0" cy="640.0" r="13.6" fill="#F7D56A" stroke="#222222" stroke-width="5" stroke-linejoin="round" stroke-linecap="round"/>
<circle cx="1370.0" cy="527.8" r="17.0" fill="#FFE8A8" stroke="#222222" stroke-width="5" stroke-linejoin="round" stroke-linecap="round"/>
<circle cx="1467.2" cy="583.9" r="17.0" fill="#FFE8A8" stroke="#222222" stroke-width="5" stroke-linejoin="round" stroke-linecap="round"/>
<circle cx="1467.2" cy="583.9" r="9.3" fill="#F7A8C4" stroke="#222222" stroke-width="4" stroke-linejoin="round" stroke-linecap="round"/>
<circle cx="1467.2" cy="696.1" r="17.0" fill="#FFE8A8" stroke="#222222" stroke-width="5" stroke-linejoin="round" stroke-linecap="round"/>
<circle cx="1467.2" cy="696.1" r="9.3" fill="#7EB6F2" stroke="#222222" stroke-width="4" stroke-linejoin="round" stroke-linecap="round"/>
<circle cx="1370.0" cy="752.2" r="17.0" fill="#FFE8A8" stroke="#222222" stroke-width="5" stroke-linejoin="round" stroke-linecap="round"/>
<circle cx="1272.8" cy="696.1" r="17.0" fill="#FFE8A8" stroke="#222222" stroke-width="5" stroke-linejoin="round" stroke-linecap="round"/>
<circle cx="1272.8" cy="583.9" r="17.0" fill="#FFE8A8" stroke="#222222" stroke-width="5" stroke-linejoin="round" stroke-linecap="round"/>
<text x="1370.0" y="860.0" fill="#222222" font-family="Noto Serif" font-size="46" font-weight="700" text-anchor="middle">E</text>
</svg>
